<?xml version="1.0" ?><!DOCTYPE svg  PUBLIC '-//W3C//DTD SVG 20010904//EN'  'http://www.w3.org/TR/2001/REC-SVG-20010904/DTD/svg10.dtd'><svg height="512.000000pt" preserveAspectRatio="xMidYMid meet" version="1.0" viewBox="0 0 512.000000 512.000000" width="512.000000pt" xmlns="http://www.w3.org/2000/svg"><g fill="#000000" stroke="none" transform="translate(0.000000,512.000000) scale(0.100000,-0.100000)"><path d="M2415 3324 c-505 -58 -868 -188 -1023 -365 -57 -65 -84 -140 -88 -243 -9 -215 -6 -289 15 -356 42 -135 121 -189 315 -215 326 -44 612 -126 886 -255 208 -98 238 -105 455 -105 214 1 289 17 454 96 169 83 268 200 337 401 52 153 69 322 44 429 -39 165 -166 342 -319 445 -121 82 -288 141 -474 168 -129 20 -432 19 -602 0z m650 -138 c292 -67 472 -191 574 -395 62 -122 70 -247 21 -326 -54 -88 -171 -158 -338 -202 -86 -23 -117 -26 -277 -27 -213 -1 -224 1 -497 110 -233 92 -335 117 -613 149 -295 34 -341 42 -402 70 -87 39 -118 117 -89 220 55 188 416 339 981 410 150 19 542 13 640 -9z m-1546 -758 c30 -11 105 -26 165 -33 61 -8 189 -23 284 -35 223 -27 323 -53 536 -139 236 -96 300 -112 471 -118 214 -8 403 23 552 92 40 19 73 31 73 28 0 -4 -14 -28 -31 -55 -66 -103 -189 -182 -354 -230 -69 -20 -102 -23 -245 -23 -152 1 -171 3 -241 27 -41 15 -120 49 -175 76 -206 103 -523 198 -814 242 -184 29 -212 36 -242 60 -27 20 -52 65 -64 114 -6 26 -5 28 12 21 10 -4 44 -17 73 -27z"/><path d="M3050 2993 c-100 -38 -104 -141 -7 -197 114 -67 281 -27 281 68 0 78 -83 137 -194 135 -36 0 -72 -3 -80 -6z"/></g></svg>